<svg width="40" height="32" viewBox="0 0 40 32" fill="none" xmlns="http://www.w3.org/2000/svg">
<g clip-path="url(#clip0)">
<g filter="url(#filter0_d)">
<path d="M25.9706 8.08141C25.8965 7.85317 25.6944 7.69158 25.4563 7.66999L22.2088 7.37458L20.9254 4.36395C20.8306 4.14276 20.615 4 20.375 4C20.135 4 19.9193 4.14276 19.8252 4.36395L18.5417 7.37458L15.2937 7.66999C15.0556 7.69201 14.8539 7.8536 14.7794 8.08141C14.7054 8.30965 14.7738 8.55999 14.9539 8.71823L17.4087 10.875L16.6849 14.0691C16.632 14.304 16.7229 14.5469 16.9174 14.6877C17.022 14.7638 17.1448 14.8019 17.2681 14.8019C17.374 14.8019 17.48 14.7736 17.5747 14.7169L20.375 13.0392L23.1748 14.7169C23.3802 14.8399 23.6385 14.8286 23.8326 14.6877C24.0271 14.5469 24.1181 14.304 24.0651 14.0691L23.3413 10.875L25.7962 8.71823C25.9761 8.55999 26.0446 8.31016 25.9706 8.08141Z" fill="url(#paint0_linear)"/>
<mask id="mask0" mask-type="alpha" maskUnits="userSpaceOnUse" x="14" y="4" width="12" height="11">
<path d="M25.9706 8.08141C25.8965 7.85317 25.6944 7.69158 25.4563 7.66999L22.2088 7.37458L20.9254 4.36395C20.8306 4.14276 20.615 4 20.375 4C20.135 4 19.9193 4.14276 19.8252 4.36395L18.5417 7.37458L15.2937 7.66999C15.0556 7.69201 14.8539 7.8536 14.7794 8.08141C14.7054 8.30965 14.7738 8.55999 14.9539 8.71823L17.4087 10.875L16.6849 14.0691C16.632 14.304 16.7229 14.5469 16.9174 14.6877C17.022 14.7638 17.1448 14.8019 17.2681 14.8019C17.374 14.8019 17.48 14.7736 17.5747 14.7169L20.375 13.0392L23.1748 14.7169C23.3802 14.8399 23.6385 14.8286 23.8326 14.6877C24.0271 14.5469 24.1181 14.304 24.0651 14.0691L23.3413 10.875L25.7962 8.71823C25.9761 8.55999 26.0446 8.31016 25.9706 8.08141Z" fill="url(#paint1_linear)"/>
</mask>
<g mask="url(#mask0)">
<g opacity="0.6" filter="url(#filter1_f)">
<circle cx="22.5" cy="3.69189" r="10.3125" fill="url(#paint2_linear)"/>
</g>
</g>
</g>
</g>
<path d="M13 24C15 26 23.5 26.5 27.5 24.5" stroke="#6E390C"/>
<g clip-path="url(#clip1)">
<path d="M13.3598 24.7451L13.3515 24.6787C13.3515 24.6787 13.3432 24.6538 13.3349 24.6123C13.3763 24.6289 13.4177 24.6455 13.4591 24.6621L14.6679 23.5659C14.9245 23.0179 15.1646 22.0961 14.8666 20.7841C14.345 18.5254 12.2338 17.4292 12.1427 17.3794L11.9275 17.2715L11.8447 17.4957C11.8198 17.5538 11.3065 18.9157 11.2983 20.4934C11.2983 21.0664 11.3976 21.6228 11.5797 22.1376C11.4556 22.0546 11.3397 21.9716 11.232 21.8885C10.4952 21.3571 9.81629 20.7758 9.21192 20.153C9.70866 19.854 10.5035 19.1565 10.9257 17.6784C11.5632 15.4446 10.2385 13.4599 10.1889 13.3769L10.0564 13.1776L9.87425 13.327C9.82457 13.3686 8.72345 14.3069 7.95349 15.6854C7.58921 16.3414 7.38223 17.0722 7.36567 17.7697C7.15042 17.4209 6.96 17.0639 6.79441 16.7151C6.61227 16.3248 6.44669 15.9179 6.30594 15.4944C6.83581 15.3947 7.64716 15.0792 8.44196 14.1076C9.74178 12.5215 9.36094 10.4372 9.34438 10.3542L9.30299 10.1217L9.07945 10.1881C9.02978 10.2047 7.80447 10.5784 6.70334 11.4254C6.33906 11.7077 6.02445 12.0399 5.77608 12.4136C5.73469 11.6081 5.7678 10.8026 5.87543 10.022C5.98306 10.0469 6.14864 10.0635 6.34734 10.0635C6.88548 10.0635 7.72167 9.90577 8.65722 9.1418C10.2551 7.85467 10.3048 5.73713 10.3048 5.65409V5.41327L10.0647 5.42988C10.015 5.43819 8.73173 5.54614 7.48158 6.15234C7.2746 6.25198 7.08418 6.36824 6.89376 6.4928C7.1173 6.01947 7.37395 5.56275 7.65544 5.13094C7.76307 4.96486 7.87898 4.79877 8.00317 4.63269C8.54131 4.60778 9.31955 4.42509 10.1971 3.71094C11.795 2.42381 11.8447 0.30628 11.8447 0.223239V-0.0175781L11.6046 -0.000970013C11.5549 0.00733404 10.2716 0.115287 9.0215 0.721483C8.0694 1.21142 7.32428 2.02522 7.04279 2.92206C6.8772 3.44521 6.89376 3.95176 7.0759 4.35866C7.01795 4.4417 6.96 4.50813 6.91032 4.58287C6.55432 5.08111 6.23143 5.62088 5.94994 6.19386C5.92511 6.25198 5.90027 6.30181 5.86715 6.35994C5.46975 4.60778 4.01263 3.60299 3.94639 3.55317L3.7477 3.4203L3.63179 3.6279C3.60695 3.67773 3.00257 4.80708 2.82043 6.19386C2.67969 7.26508 2.9529 8.3363 3.54072 9.05875C3.88844 9.49057 4.32723 9.7563 4.77431 9.81442C4.65012 10.5784 4.59217 11.359 4.59217 12.1562C4.55905 12.098 4.52593 12.0482 4.49282 11.9901C3.41653 10.2545 1.33019 9.95559 1.2474 9.93898L1.01558 9.90577L0.999027 10.1466C0.999027 10.1964 0.957631 11.4835 1.41298 12.8039C1.95941 14.4149 3.25095 15.2619 4.24444 15.2619C4.46798 15.2619 4.67496 15.2204 4.86538 15.1456L4.93989 15.1124C5.10547 15.8183 5.33729 16.4992 5.63534 17.1635C5.73469 17.3794 5.83403 17.5953 5.94994 17.8112C5.34557 17.5455 4.66668 17.4126 3.93812 17.4126C2.86183 17.4126 2.05048 17.7116 2.01736 17.7199L1.79382 17.8029L1.90145 18.0188C1.92629 18.077 2.57206 19.3724 3.73114 20.4519C4.55905 21.2242 5.6105 21.6643 6.61227 21.6643C7.30772 21.6643 7.90382 21.4484 8.29293 21.0498C8.68205 21.4567 9.09601 21.847 9.52652 22.2124C9.47685 22.2124 9.42717 22.2124 9.36922 22.2124C7.74651 22.2124 6.47981 23.0179 6.43013 23.0511L6.23143 23.1757L6.38046 23.3583C6.42185 23.4082 7.32428 24.5375 8.68205 25.343C9.40234 25.7748 10.1971 25.999 10.9837 25.999C12.0765 25.999 12.9789 25.5506 13.3515 24.8199L13.3846 24.7534L13.3598 24.7451Z" fill="url(#paint3_linear)"/>
<path d="M14.43 23.7747C14.4135 23.7747 14.3969 23.7664 14.3886 23.7664C14.3307 23.7498 14.2562 23.7332 14.1899 23.7082C13.925 23.6252 13.6601 23.5089 13.3951 23.3844C13.1302 23.2598 12.8736 23.127 12.6252 22.9858C12.1202 22.7034 11.6234 22.3879 11.1515 22.0474C10.2077 21.3665 9.33009 20.5859 8.56013 19.7057C7.79845 18.8255 7.12784 17.8539 6.63937 16.7993C6.14262 15.7446 5.81974 14.6153 5.67899 13.4527C5.53825 12.2902 5.53825 11.1027 5.69555 9.94011C5.85285 8.77754 6.18402 7.63159 6.67249 6.56036C6.92086 6.0206 7.20235 5.50575 7.52524 5.01581C7.84812 4.52587 8.20413 4.04423 8.62636 3.62903C8.60152 3.65394 8.57669 3.67055 8.55185 3.69546C8.59325 3.65394 8.6098 3.63733 8.61808 3.62903L8.35315 3.32178L8.34487 3.31348V3.32178C8.11306 3.52938 7.90608 3.75359 7.70738 3.9778C7.50868 4.21031 7.31826 4.45113 7.13612 4.70025C6.78012 5.1985 6.46551 5.72996 6.1923 6.27802C5.64588 7.38246 5.25676 8.56994 5.04978 9.78234C4.8428 11.003 4.80968 12.2486 4.93387 13.4776C5.04978 14.7149 5.36439 15.9356 5.87769 17.0733C6.38272 18.211 7.06161 19.2656 7.86468 20.2122C8.66776 21.1589 9.58674 22.0059 10.5802 22.7367C11.077 23.102 11.5986 23.4425 12.1367 23.7498C12.6252 24.0238 13.1136 24.2812 13.6435 24.4805L14.43 23.7747Z" fill="url(#paint4_linear)"/>
<path d="M13.1868 24.7291C13.1868 24.7291 12.8474 23.3008 10.7031 22.6198C8.56707 21.9472 6.58008 23.226 6.58008 23.226C6.58008 23.226 7.4825 24.3637 8.82372 25.1609C10.5872 26.2155 12.6156 25.8501 13.1868 24.7291Z" fill="url(#paint5_linear)"/>
<path opacity="0.49" d="M6.84501 23.2263C6.84501 23.2263 9.22111 22.1385 10.8769 23.0104C12.5328 23.874 11.4979 25.5099 10.3305 25.4269C9.16316 25.3438 6.71254 23.4339 6.84501 23.2263Z" fill="white"/>
<path opacity="0.49" d="M7.07617 23.3177C7.07617 23.3177 8.74027 24.7211 9.52679 24.6131C10.3133 24.5052 10.512 23.3841 9.77516 22.9191C9.03832 22.4458 7.07617 23.3177 7.07617 23.3177Z" fill="white"/>
<path d="M8.2696 20.8018C8.2696 20.8018 8.23648 19.332 6.29089 18.2193C4.34529 17.1065 2.13477 17.9369 2.13477 17.9369C2.13477 17.9369 2.78054 19.249 3.91478 20.3036C5.42158 21.6986 7.4748 21.7734 8.2696 20.8018Z" fill="url(#paint6_linear)"/>
<path opacity="0.49" d="M2.3837 17.9784C2.3837 17.9784 4.93367 17.4221 6.36596 18.6262C7.79825 19.8219 6.44047 21.2004 5.32279 20.8766C4.20511 20.5444 2.20984 18.1528 2.3837 17.9784Z" fill="white"/>
<path opacity="0.49" d="M2.58984 18.1196C2.58984 18.1196 3.92278 19.8468 4.71758 19.9049C5.51237 19.9631 5.94289 18.9168 5.31368 18.3023C4.69274 17.6878 2.58984 18.1196 2.58984 18.1196Z" fill="white"/>
<path d="M4.8252 14.9472C4.8252 14.9472 5.41302 13.7929 4.36157 12.1155C3.3184 10.4381 1.2569 10.1558 1.2569 10.1558C1.2569 10.1558 1.21551 11.4346 1.6543 12.7383C2.24212 14.4573 3.80687 15.3707 4.8252 14.9472Z" fill="url(#paint7_linear)"/>
<path opacity="0.49" d="M1.43876 10.3052C1.43876 10.3052 3.64929 10.9446 4.26194 12.4725C4.8746 14.0005 3.25189 14.507 2.51505 13.7763C1.77821 13.0538 1.23178 10.3716 1.43876 10.3052Z" fill="white"/>
<path opacity="0.49" d="M1.53906 10.4961C1.53906 10.4961 1.85367 12.3894 2.44149 12.7714C3.0293 13.1451 3.79926 12.514 3.57573 11.7749C3.35219 11.0442 1.53906 10.4961 1.53906 10.4961Z" fill="white"/>
<path d="M4.94147 9.61609C4.94147 9.61609 5.97636 8.84381 5.78594 6.87575C5.59552 4.90769 3.87346 3.73682 3.87346 3.73682C3.87346 3.73682 3.26908 4.86617 3.08694 6.22803C2.84685 8.02171 3.84034 9.54136 4.94147 9.61609Z" fill="url(#paint8_linear)"/>
<path opacity="0.49" d="M3.96579 3.94465C3.96579 3.94465 5.66301 5.4975 5.53882 7.14171C5.40636 8.78591 3.73398 8.51188 3.39453 7.5403C3.05509 6.56042 3.75053 3.91143 3.96579 3.94465Z" fill="white"/>
<path opacity="0.49" d="M3.97222 4.16846C3.97222 4.16846 3.41752 6.01196 3.77352 6.60985C4.1378 7.20774 5.10646 6.98353 5.23065 6.22786C5.35483 5.46389 3.97222 4.16846 3.97222 4.16846Z" fill="white"/>
<path d="M14.1378 24.0401C14.1378 24.0401 15.1975 23.0187 14.6925 20.8265C14.1875 18.6342 12.0846 17.563 12.0846 17.563C12.0846 17.563 11.563 18.9249 11.5547 20.4777C11.5464 22.5454 12.8877 24.1149 14.1378 24.0401Z" fill="url(#paint9_linear)"/>
<path opacity="0.49" d="M12.2181 17.7954C12.2181 17.7954 14.3541 19.2985 14.4452 21.1669C14.5363 23.0353 12.6072 22.9688 12.0856 21.9225C11.5723 20.8762 11.978 17.7871 12.2181 17.7954Z" fill="white"/>
<path opacity="0.49" d="M12.2596 18.0361C12.2596 18.0361 11.8954 20.1869 12.3921 20.8097C12.8889 21.4325 13.9486 21.0422 13.9734 20.162C13.9983 19.2984 12.2596 18.0361 12.2596 18.0361Z" fill="white"/>
<path d="M8.72509 20.1623C8.72509 20.1623 10.1408 19.7803 10.7618 17.6213C11.3827 15.4622 10.0498 13.5024 10.0498 13.5024C10.0498 13.5024 8.93207 14.4408 8.17867 15.8027C7.17689 17.5963 7.59085 19.6142 8.72509 20.1623Z" fill="url(#paint10_linear)"/>
<path opacity="0.49" d="M10.0571 13.7598C10.0571 13.7598 11.1996 16.1182 10.38 17.7956C9.56037 19.473 7.90454 18.4849 7.95422 17.314C8.00389 16.1431 9.85014 13.6353 10.0571 13.7598Z" fill="white"/>
<path opacity="0.49" d="M9.97465 13.9922C9.97465 13.9922 8.61687 15.6945 8.74933 16.4834C8.8818 17.2723 9.99948 17.4384 10.4466 16.691C10.8854 15.9436 9.97465 13.9922 9.97465 13.9922Z" fill="white"/>
<path d="M5.81034 9.7736C5.81034 9.7736 7.0191 10.222 8.55902 8.97641C10.0989 7.7308 10.1321 5.64648 10.1321 5.64648C10.1321 5.64648 8.85706 5.75444 7.62347 6.35233C5.99249 7.14121 5.26392 8.81033 5.81034 9.7736Z" fill="url(#paint11_linear)"/>
<path opacity="0.49" d="M9.99974 5.84569C9.99974 5.84569 9.63546 8.12101 8.19489 8.90989C6.75432 9.69878 6.06715 8.14592 6.68808 7.32382C7.3173 6.51832 9.90867 5.6464 9.99974 5.84569Z" fill="white"/>
<path opacity="0.49" d="M9.82615 5.97021C9.82615 5.97021 7.98819 6.50998 7.68186 7.14109C7.37553 7.77219 8.09582 8.46143 8.79954 8.14588C9.49499 7.83863 9.82615 5.97021 9.82615 5.97021Z" fill="white"/>
<path d="M7.36699 4.35954C7.36699 4.35954 8.57574 4.80796 10.1157 3.56235C11.6556 2.31674 11.6887 0.232422 11.6887 0.232422C11.6887 0.232422 10.4137 0.340375 9.18011 0.938267C7.54913 1.72715 6.82056 3.38796 7.36699 4.35954Z" fill="url(#paint12_linear)"/>
<path opacity="0.49" d="M11.5549 0.43185C11.5549 0.43185 11.1906 2.70716 9.75001 3.49605C8.30944 4.28493 7.62227 2.73207 8.25149 1.90997C8.87242 1.09617 11.4721 0.232553 11.5549 0.43185Z" fill="white"/>
<path opacity="0.49" d="M11.3819 0.556152C11.3819 0.556152 9.54396 1.09592 9.23763 1.72702C8.93958 2.35813 9.65159 3.04737 10.3553 2.73182C11.059 2.42456 11.3819 0.556152 11.3819 0.556152Z" fill="white"/>
<path d="M5.78493 15.3125C5.78493 15.3125 7.05991 15.5035 8.31006 13.9672C9.56021 12.4393 9.17109 10.3882 9.17109 10.3882C9.17109 10.3882 7.94578 10.7536 6.86122 11.5923C5.42893 12.705 5.05637 14.4821 5.78493 15.3125Z" fill="url(#paint13_linear)"/>
<path opacity="0.49" d="M9.08821 10.6127C9.08821 10.6127 9.19584 12.9129 7.94569 13.9842C6.69554 15.0554 5.70205 13.6686 6.1574 12.7469C6.59619 11.8168 8.96402 10.4383 9.08821 10.6127Z" fill="white"/>
<path opacity="0.49" d="M8.93858 10.77C8.93858 10.77 7.24964 11.6752 7.07578 12.3561C6.9102 13.037 7.75467 13.5685 8.3756 13.1118C8.99654 12.6633 8.93858 10.77 8.93858 10.77Z" fill="white"/>
</g>
<g clip-path="url(#clip2)">
<path d="M27.6402 24.7451L27.6485 24.6787C27.6485 24.6787 27.6568 24.6538 27.6651 24.6123C27.6237 24.6289 27.5823 24.6455 27.5409 24.6621L26.3321 23.5659C26.0755 23.0179 25.8354 22.0961 26.1334 20.7841C26.655 18.5254 28.7662 17.4292 28.8573 17.3794L29.0725 17.2715L29.1553 17.4957C29.1802 17.5538 29.6935 18.9157 29.7017 20.4934C29.7017 21.0664 29.6024 21.6228 29.4203 22.1376C29.5444 22.0546 29.6603 21.9716 29.768 21.8885C30.5048 21.3571 31.1837 20.7758 31.7881 20.153C31.2913 19.854 30.4965 19.1565 30.0743 17.6784C29.4368 15.4446 30.7615 13.4599 30.8111 13.3769L30.9436 13.1776L31.1258 13.327C31.1754 13.3686 32.2766 14.3069 33.0465 15.6854C33.4108 16.3414 33.6178 17.0722 33.6343 17.7697C33.8496 17.4209 34.04 17.0639 34.2056 16.7151C34.3877 16.3248 34.5533 15.9179 34.6941 15.4944C34.1642 15.3947 33.3528 15.0792 32.558 14.1076C31.2582 12.5215 31.6391 10.4372 31.6556 10.3542L31.697 10.1217L31.9205 10.1881C31.9702 10.2047 33.1955 10.5784 34.2967 11.4254C34.6609 11.7077 34.9755 12.0399 35.2239 12.4136C35.2653 11.6081 35.2322 10.8026 35.1246 10.022C35.0169 10.0469 34.8514 10.0635 34.6527 10.0635C34.1145 10.0635 33.2783 9.90577 32.3428 9.1418C30.7449 7.85467 30.6952 5.73713 30.6952 5.65409V5.41327L30.9353 5.42988C30.985 5.43819 32.2683 5.54614 33.5184 6.15234C33.7254 6.25198 33.9158 6.36824 34.1062 6.4928C33.8827 6.01947 33.626 5.56275 33.3446 5.13094C33.2369 4.96486 33.121 4.79877 32.9968 4.63269C32.4587 4.60778 31.6805 4.42509 30.8029 3.71094C29.205 2.42381 29.1553 0.30628 29.1553 0.223239V-0.0175781L29.3954 -0.000970013C29.4451 0.00733404 30.7284 0.115287 31.9785 0.721483C32.9306 1.21142 33.6757 2.02522 33.9572 2.92206C34.1228 3.44521 34.1062 3.95176 33.9241 4.35866C33.9821 4.4417 34.04 4.50813 34.0897 4.58287C34.4457 5.08111 34.7686 5.62088 35.0501 6.19386C35.0749 6.25198 35.0997 6.30181 35.1328 6.35994C35.5302 4.60778 36.9874 3.60299 37.0536 3.55317L37.2523 3.4203L37.3682 3.6279C37.393 3.67773 37.9974 4.80708 38.1796 6.19386C38.3203 7.26508 38.0471 8.3363 37.4593 9.05875C37.1116 9.49057 36.6728 9.7563 36.2257 9.81442C36.3499 10.5784 36.4078 11.359 36.4078 12.1562C36.441 12.098 36.4741 12.0482 36.5072 11.9901C37.5835 10.2545 39.6698 9.95559 39.7526 9.93898L39.9844 9.90577L40.001 10.1466C40.001 10.1964 40.0424 11.4835 39.587 12.8039C39.0406 14.4149 37.7491 15.2619 36.7556 15.2619C36.532 15.2619 36.325 15.2204 36.1346 15.1456L36.0601 15.1124C35.8945 15.8183 35.6627 16.4992 35.3647 17.1635C35.2653 17.3794 35.166 17.5953 35.0501 17.8112C35.6544 17.5455 36.3333 17.4126 37.0619 17.4126C38.1382 17.4126 38.9495 17.7116 38.9826 17.7199L39.2062 17.8029L39.0985 18.0188C39.0737 18.077 38.4279 19.3724 37.2689 20.4519C36.441 21.2242 35.3895 21.6643 34.3877 21.6643C33.6923 21.6643 33.0962 21.4484 32.7071 21.0498C32.3179 21.4567 31.904 21.847 31.4735 22.2124C31.5232 22.2124 31.5728 22.2124 31.6308 22.2124C33.2535 22.2124 34.5202 23.0179 34.5699 23.0511L34.7686 23.1757L34.6195 23.3583C34.5781 23.4082 33.6757 24.5375 32.3179 25.343C31.5977 25.7748 30.8029 25.999 30.0163 25.999C28.9235 25.999 28.0211 25.5506 27.6485 24.8199L27.6154 24.7534L27.6402 24.7451Z" fill="url(#paint14_linear)"/>
<path d="M26.57 23.7747C26.5865 23.7747 26.6031 23.7664 26.6114 23.7664C26.6693 23.7498 26.7438 23.7332 26.8101 23.7082C27.075 23.6252 27.3399 23.5089 27.6049 23.3844C27.8698 23.2598 28.1264 23.127 28.3748 22.9858C28.8798 22.7034 29.3766 22.3879 29.8485 22.0474C30.7923 21.3665 31.6699 20.5859 32.4399 19.7057C33.2016 18.8255 33.8722 17.8539 34.3606 16.7993C34.8574 15.7446 35.1803 14.6153 35.321 13.4527C35.4618 12.2902 35.4618 11.1027 35.3044 9.94011C35.1471 8.77754 34.816 7.63159 34.3275 6.56036C34.0791 6.0206 33.7976 5.50575 33.4748 5.01581C33.1519 4.52587 32.7959 4.04423 32.3736 3.62903C32.3985 3.65394 32.4233 3.67055 32.4482 3.69546C32.4068 3.65394 32.3902 3.63733 32.3819 3.62903L32.6468 3.32178L32.6551 3.31348V3.32178C32.8869 3.52938 33.0939 3.75359 33.2926 3.9778C33.4913 4.21031 33.6817 4.45113 33.8639 4.70025C34.2199 5.1985 34.5345 5.72996 34.8077 6.27802C35.3541 7.38246 35.7432 8.56994 35.9502 9.78234C36.1572 11.003 36.1903 12.2486 36.0661 13.4776C35.9502 14.7149 35.6356 15.9356 35.1223 17.0733C34.6173 18.211 33.9384 19.2656 33.1353 20.2122C32.3322 21.1589 31.4133 22.0059 30.4198 22.7367C29.923 23.102 29.4014 23.4425 28.8633 23.7498C28.3748 24.0238 27.8864 24.2812 27.3565 24.4805L26.57 23.7747Z" fill="url(#paint15_linear)"/>
<path d="M27.8132 24.7291C27.8132 24.7291 28.1526 23.3008 30.2969 22.6198C32.4329 21.9472 34.4199 23.226 34.4199 23.226C34.4199 23.226 33.5175 24.3637 32.1763 25.1609C30.4128 26.2155 28.3844 25.8501 27.8132 24.7291Z" fill="url(#paint16_linear)"/>
<path opacity="0.49" d="M34.155 23.2263C34.155 23.2263 31.7789 22.1385 30.1231 23.0104C28.4672 23.874 29.5021 25.5099 30.6695 25.4269C31.8368 25.3438 34.2875 23.4339 34.155 23.2263Z" fill="white"/>
<path opacity="0.49" d="M33.9238 23.3177C33.9238 23.3177 32.2597 24.7211 31.4732 24.6131C30.6867 24.5052 30.488 23.3841 31.2248 22.9191C31.9617 22.4458 33.9238 23.3177 33.9238 23.3177Z" fill="white"/>
<path d="M32.7304 20.8018C32.7304 20.8018 32.7635 19.332 34.7091 18.2193C36.6547 17.1065 38.8652 17.9369 38.8652 17.9369C38.8652 17.9369 38.2195 19.249 37.0852 20.3036C35.5784 21.6986 33.5252 21.7734 32.7304 20.8018Z" fill="url(#paint17_linear)"/>
<path opacity="0.49" d="M38.6163 17.9784C38.6163 17.9784 36.0663 17.4221 34.634 18.6262C33.2018 19.8219 34.5595 21.2004 35.6772 20.8766C36.7949 20.5444 38.7902 18.1528 38.6163 17.9784Z" fill="white"/>
<path opacity="0.49" d="M38.4102 18.1196C38.4102 18.1196 37.0772 19.8468 36.2824 19.9049C35.4876 19.9631 35.0571 18.9168 35.6863 18.3023C36.3073 17.6878 38.4102 18.1196 38.4102 18.1196Z" fill="white"/>
<path d="M36.1748 14.9472C36.1748 14.9472 35.587 13.7929 36.6384 12.1155C37.6816 10.4381 39.7431 10.1558 39.7431 10.1558C39.7431 10.1558 39.7845 11.4346 39.3457 12.7383C38.7579 14.4573 37.1931 15.3707 36.1748 14.9472Z" fill="url(#paint18_linear)"/>
<path opacity="0.49" d="M39.5612 10.3052C39.5612 10.3052 37.3507 10.9446 36.7381 12.4725C36.1254 14.0005 37.7481 14.507 38.485 13.7763C39.2218 13.0538 39.7682 10.3716 39.5612 10.3052Z" fill="white"/>
<path opacity="0.49" d="M39.4609 10.4961C39.4609 10.4961 39.1463 12.3894 38.5585 12.7714C37.9707 13.1451 37.2007 12.514 37.4243 11.7749C37.6478 11.0442 39.4609 10.4961 39.4609 10.4961Z" fill="white"/>
<path d="M36.0585 9.61609C36.0585 9.61609 35.0236 8.84381 35.2141 6.87575C35.4045 4.90769 37.1265 3.73682 37.1265 3.73682C37.1265 3.73682 37.7309 4.86617 37.9131 6.22803C38.1532 8.02171 37.1597 9.54136 36.0585 9.61609Z" fill="url(#paint19_linear)"/>
<path opacity="0.49" d="M37.0342 3.94465C37.0342 3.94465 35.337 5.4975 35.4612 7.14171C35.5936 8.78591 37.266 8.51188 37.6055 7.5403C37.9449 6.56042 37.2495 3.91143 37.0342 3.94465Z" fill="white"/>
<path opacity="0.49" d="M37.0278 4.16846C37.0278 4.16846 37.5825 6.01196 37.2265 6.60985C36.8622 7.20774 35.8935 6.98353 35.7694 6.22786C35.6452 5.46389 37.0278 4.16846 37.0278 4.16846Z" fill="white"/>
<path d="M26.8622 24.0401C26.8622 24.0401 25.8025 23.0187 26.3075 20.8265C26.8125 18.6342 28.9154 17.563 28.9154 17.563C28.9154 17.563 29.437 18.9249 29.4453 20.4777C29.4536 22.5454 28.1123 24.1149 26.8622 24.0401Z" fill="url(#paint20_linear)"/>
<path opacity="0.49" d="M28.7819 17.7954C28.7819 17.7954 26.6459 19.2985 26.5548 21.1669C26.4637 23.0353 28.3928 22.9688 28.9144 21.9225C29.4277 20.8762 29.022 17.7871 28.7819 17.7954Z" fill="white"/>
<path opacity="0.49" d="M28.7404 18.0361C28.7404 18.0361 29.1046 20.1869 28.6079 20.8097C28.1111 21.4325 27.0514 21.0422 27.0266 20.162C27.0017 19.2984 28.7404 18.0361 28.7404 18.0361Z" fill="white"/>
<path d="M32.2749 20.1623C32.2749 20.1623 30.8592 19.7803 30.2382 17.6213C29.6173 15.4622 30.9502 13.5024 30.9502 13.5024C30.9502 13.5024 32.0679 14.4408 32.8213 15.8027C33.8231 17.5963 33.4092 19.6142 32.2749 20.1623Z" fill="url(#paint21_linear)"/>
<path opacity="0.49" d="M30.9429 13.7598C30.9429 13.7598 29.8004 16.1182 30.62 17.7956C31.4396 19.473 33.0955 18.4849 33.0458 17.314C32.9961 16.1431 31.1499 13.6353 30.9429 13.7598Z" fill="white"/>
<path opacity="0.49" d="M31.0254 13.9922C31.0254 13.9922 32.3831 15.6945 32.2507 16.4834C32.1182 17.2723 31.0005 17.4384 30.5534 16.691C30.1146 15.9436 31.0254 13.9922 31.0254 13.9922Z" fill="white"/>
<path d="M35.1897 9.7736C35.1897 9.7736 33.9809 10.222 32.441 8.97641C30.9011 7.7308 30.8679 5.64648 30.8679 5.64648C30.8679 5.64648 32.1429 5.75444 33.3765 6.35233C35.0075 7.14121 35.7361 8.81033 35.1897 9.7736Z" fill="url(#paint22_linear)"/>
<path opacity="0.49" d="M31.0003 5.84569C31.0003 5.84569 31.3645 8.12101 32.8051 8.90989C34.2457 9.69878 34.9328 8.14592 34.3119 7.32382C33.6827 6.51832 31.0913 5.6464 31.0003 5.84569Z" fill="white"/>
<path opacity="0.49" d="M31.1738 5.97021C31.1738 5.97021 33.0118 6.50998 33.3181 7.14109C33.6245 7.77219 32.9042 8.46143 32.2005 8.14588C31.505 7.83863 31.1738 5.97021 31.1738 5.97021Z" fill="white"/>
<path d="M33.633 4.35954C33.633 4.35954 32.4243 4.80796 30.8843 3.56235C29.3444 2.31674 29.3113 0.232422 29.3113 0.232422C29.3113 0.232422 30.5863 0.340375 31.8199 0.938267C33.4509 1.72715 34.1794 3.38796 33.633 4.35954Z" fill="url(#paint23_linear)"/>
<path opacity="0.49" d="M29.4451 0.43185C29.4451 0.43185 29.8094 2.70716 31.25 3.49605C32.6906 4.28493 33.3777 2.73207 32.7485 1.90997C32.1276 1.09617 29.5279 0.232553 29.4451 0.43185Z" fill="white"/>
<path opacity="0.49" d="M29.6181 0.556152C29.6181 0.556152 31.456 1.09592 31.7624 1.72702C32.0604 2.35813 31.3484 3.04737 30.6447 2.73182C29.941 2.42456 29.6181 0.556152 29.6181 0.556152Z" fill="white"/>
<path d="M35.2151 15.3125C35.2151 15.3125 33.9401 15.5035 32.6899 13.9672C31.4398 12.4393 31.8289 10.3882 31.8289 10.3882C31.8289 10.3882 33.0542 10.7536 34.1388 11.5923C35.5711 12.705 35.9436 14.4821 35.2151 15.3125Z" fill="url(#paint24_linear)"/>
<path opacity="0.49" d="M31.9118 10.6127C31.9118 10.6127 31.8042 12.9129 33.0543 13.9842C34.3045 15.0554 35.298 13.6686 34.8426 12.7469C34.4038 11.8168 32.036 10.4383 31.9118 10.6127Z" fill="white"/>
<path opacity="0.49" d="M32.0614 10.77C32.0614 10.77 33.7504 11.6752 33.9242 12.3561C34.0898 13.037 33.2453 13.5685 32.6244 13.1118C32.0035 12.6633 32.0614 10.77 32.0614 10.77Z" fill="white"/>
</g>
<path d="M22.1279 25.9723C22.1279 25.9723 22.9139 24.7323 25.163 24.7867C27.4016 24.8462 28.864 26.7024 28.864 26.7024C28.864 26.7024 27.6403 27.4842 26.1126 27.8012C24.1018 28.2242 22.303 27.2182 22.1279 25.9723Z" fill="url(#paint25_linear)"/>
<path opacity="0.49" d="M28.6134 26.6163C28.6134 26.6163 26.721 24.814 24.8715 25.0993C23.0247 25.3767 23.4706 27.2604 24.6013 27.562C25.7321 27.8636 28.6711 26.8557 28.6134 26.6163Z" fill="white"/>
<path opacity="0.49" d="M28.3654 26.6272C28.3654 26.6272 26.335 27.4122 25.6265 27.0541C24.918 26.6959 25.0952 25.5713 25.9433 25.3715C26.7941 25.1639 28.3654 26.6272 28.3654 26.6272Z" fill="white"/>
<path d="M21.4525 25.0106C21.4525 25.0106 20.7831 23.6998 21.9745 21.7915C23.1658 19.8831 25.5029 19.555 25.5029 19.555C25.5029 19.555 25.5526 21.0125 25.0548 22.4834C24.3894 24.4411 22.6102 25.4884 21.4525 25.0106Z" fill="url(#paint26_linear)"/>
<path opacity="0.49" d="M25.3026 19.7317C25.3026 19.7317 22.7936 20.4573 22.0991 22.1942C21.4046 23.9312 23.2502 24.4965 24.084 23.677C24.91 22.8549 25.5323 19.802 25.3026 19.7317Z" fill="white"/>
<path opacity="0.49" d="M25.1849 19.9459C25.1849 19.9459 24.829 22.098 24.1565 22.5251C23.4841 22.9523 22.6092 22.2382 22.8723 21.3978C23.13 20.5732 25.1849 19.9459 25.1849 19.9459Z" fill="white"/>
<path d="M19.5753 25.9723C19.5753 25.9723 18.7893 24.7323 16.5401 24.7867C14.3015 24.8462 12.8392 26.7024 12.8392 26.7024C12.8392 26.7024 14.0628 27.4842 15.5905 27.8012C17.6013 28.2242 19.4002 27.2182 19.5753 25.9723Z" fill="url(#paint27_linear)"/>
<path opacity="0.49" d="M13.0897 26.6163C13.0897 26.6163 14.9821 24.814 16.8316 25.0993C18.6784 25.3767 18.2326 27.2604 17.1018 27.562C15.971 27.8636 13.032 26.8557 13.0897 26.6163Z" fill="white"/>
<path opacity="0.49" d="M13.3377 26.6272C13.3377 26.6272 15.3681 27.4122 16.0766 27.0541C16.7851 26.6959 16.608 25.5713 15.7599 25.3715C14.9091 25.1639 13.3377 26.6272 13.3377 26.6272Z" fill="white"/>
<path d="M20.2506 25.0106C20.2506 25.0106 20.92 23.6998 19.7287 21.7915C18.5373 19.8831 16.2002 19.555 16.2002 19.555C16.2002 19.555 16.1505 21.0125 16.6483 22.4834C17.3137 24.4411 19.0929 25.4884 20.2506 25.0106Z" fill="url(#paint28_linear)"/>
<path opacity="0.49" d="M16.4005 19.7317C16.4005 19.7317 18.9095 20.4573 19.604 22.1942C20.2985 23.9312 18.4529 24.4965 17.6191 23.677C16.7931 22.8549 16.1708 19.802 16.4005 19.7317Z" fill="white"/>
<path opacity="0.49" d="M16.5183 19.9459C16.5183 19.9459 16.8741 22.098 17.5466 22.5251C18.2191 22.9523 19.094 22.2382 18.8308 21.3978C18.5731 20.5732 16.5183 19.9459 16.5183 19.9459Z" fill="white"/>
<defs>
<filter id="filter0_d" x="10.75" y="0" width="19.25" height="18.8019" filterUnits="userSpaceOnUse" color-interpolation-filters="sRGB">
<feFlood flood-opacity="0" result="BackgroundImageFix"/>
<feColorMatrix in="SourceAlpha" type="matrix" values="0 0 0 0 0 0 0 0 0 0 0 0 0 0 0 0 0 0 127 0"/>
<feOffset/>
<feGaussianBlur stdDeviation="2"/>
<feColorMatrix type="matrix" values="0 0 0 0 0 0 0 0 0 0 0 0 0 0 0 0 0 0 0.25 0"/>
<feBlend mode="normal" in2="BackgroundImageFix" result="effect1_dropShadow"/>
<feBlend mode="normal" in="SourceGraphic" in2="effect1_dropShadow" result="shape"/>
</filter>
<filter id="filter1_f" x="10.1875" y="-8.62061" width="24.625" height="24.625" filterUnits="userSpaceOnUse" color-interpolation-filters="sRGB">
<feFlood flood-opacity="0" result="BackgroundImageFix"/>
<feBlend mode="normal" in="SourceGraphic" in2="BackgroundImageFix" result="shape"/>
<feGaussianBlur stdDeviation="1" result="effect1_foregroundBlur"/>
</filter>
<linearGradient id="paint0_linear" x1="20.375" y1="4" x2="20.375" y2="14.8019" gradientUnits="userSpaceOnUse">
<stop stop-color="#FBF35D"/>
<stop offset="0.265625" stop-color="#FFFDDE"/>
<stop offset="0.53125" stop-color="#FFB800"/>
<stop offset="0.864583" stop-color="#F5A62F"/>
</linearGradient>
<linearGradient id="paint1_linear" x1="20.375" y1="4" x2="20.375" y2="14.8019" gradientUnits="userSpaceOnUse">
<stop stop-color="#FBF35D"/>
<stop offset="0.265625" stop-color="#FFFDDE"/>
<stop offset="0.53125" stop-color="#FFF200"/>
<stop offset="0.864583" stop-color="#F5A62F"/>
</linearGradient>
<linearGradient id="paint2_linear" x1="22.5" y1="7.44188" x2="22.5" y2="14.0044" gradientUnits="userSpaceOnUse">
<stop stop-color="#FFF200"/>
<stop offset="0.536458" stop-color="#FFDF6C"/>
<stop offset="0.984375" stop-color="white"/>
</linearGradient>
<linearGradient id="paint3_linear" x1="0.999027" y1="13.0004" x2="15.0012" y2="13.0004" gradientUnits="userSpaceOnUse">
<stop stop-color="#6D390C"/>
<stop offset="1" stop-color="#6D390C"/>
</linearGradient>
<linearGradient id="paint4_linear" x1="7.88106" y1="16.9303" x2="11.44" y2="13.5134" gradientUnits="userSpaceOnUse">
<stop offset="0.0242424" stop-color="#6D390C"/>
<stop offset="0.4303" stop-color="#CE7C1D"/>
<stop offset="1" stop-color="#F7E436"/>
</linearGradient>
<linearGradient id="paint5_linear" x1="8.17293" y1="22.3559" x2="11.7858" y2="25.4142" gradientUnits="userSpaceOnUse">
<stop stop-color="#F7E436"/>
<stop offset="1" stop-color="#CE7C1D"/>
</linearGradient>
<linearGradient id="paint6_linear" x1="3.86747" y1="17.4132" x2="6.75256" y2="21.1697" gradientUnits="userSpaceOnUse">
<stop stop-color="#F7E436"/>
<stop offset="1" stop-color="#CE7C1D"/>
</linearGradient>
<linearGradient id="paint7_linear" x1="2.82165" y1="10.4838" x2="3.4884" y2="14.6042" gradientUnits="userSpaceOnUse">
<stop stop-color="#F7E436"/>
<stop offset="1" stop-color="#CE7C1D"/>
</linearGradient>
<linearGradient id="paint8_linear" x1="5.12491" y1="4.7249" x2="3.88878" y2="8.71094" gradientUnits="userSpaceOnUse">
<stop stop-color="#F7E436"/>
<stop offset="1" stop-color="#CE7C1D"/>
</linearGradient>
<linearGradient id="paint9_linear" x1="13.6403" y1="18.5006" x2="12.8227" y2="23.1713" gradientUnits="userSpaceOnUse">
<stop stop-color="#F7E436"/>
<stop offset="1" stop-color="#CE7C1D"/>
</linearGradient>
<linearGradient id="paint10_linear" x1="10.9592" y1="15.069" x2="7.98278" y2="18.7545" gradientUnits="userSpaceOnUse">
<stop stop-color="#F7E436"/>
<stop offset="1" stop-color="#CE7C1D"/>
</linearGradient>
<linearGradient id="paint11_linear" x1="9.98774" y1="7.24863" x2="5.9854" y2="8.39355" gradientUnits="userSpaceOnUse">
<stop stop-color="#F7E436"/>
<stop offset="1" stop-color="#CE7C1D"/>
</linearGradient>
<linearGradient id="paint12_linear" x1="11.5459" y1="1.82967" x2="7.54307" y2="2.97474" gradientUnits="userSpaceOnUse">
<stop stop-color="#F7E436"/>
<stop offset="1" stop-color="#CE7C1D"/>
</linearGradient>
<linearGradient id="paint13_linear" x1="9.36071" y1="11.985" x2="5.67368" y2="13.9225" gradientUnits="userSpaceOnUse">
<stop stop-color="#F7E436"/>
<stop offset="1" stop-color="#CE7C1D"/>
</linearGradient>
<linearGradient id="paint14_linear" x1="40.001" y1="13.0004" x2="25.9988" y2="13.0004" gradientUnits="userSpaceOnUse">
<stop stop-color="#6D390C"/>
<stop offset="1" stop-color="#6D390C"/>
</linearGradient>
<linearGradient id="paint15_linear" x1="33.1189" y1="16.9303" x2="29.56" y2="13.5134" gradientUnits="userSpaceOnUse">
<stop offset="0.0242424" stop-color="#6D390C"/>
<stop offset="0.4303" stop-color="#CE7C1D"/>
<stop offset="1" stop-color="#F7E436"/>
</linearGradient>
<linearGradient id="paint16_linear" x1="32.8271" y1="22.3559" x2="29.2142" y2="25.4142" gradientUnits="userSpaceOnUse">
<stop stop-color="#F7E436"/>
<stop offset="1" stop-color="#CE7C1D"/>
</linearGradient>
<linearGradient id="paint17_linear" x1="37.1325" y1="17.4132" x2="34.2474" y2="21.1697" gradientUnits="userSpaceOnUse">
<stop stop-color="#F7E436"/>
<stop offset="1" stop-color="#CE7C1D"/>
</linearGradient>
<linearGradient id="paint18_linear" x1="38.1783" y1="10.4838" x2="37.5116" y2="14.6042" gradientUnits="userSpaceOnUse">
<stop stop-color="#F7E436"/>
<stop offset="1" stop-color="#CE7C1D"/>
</linearGradient>
<linearGradient id="paint19_linear" x1="35.8751" y1="4.7249" x2="37.1112" y2="8.71094" gradientUnits="userSpaceOnUse">
<stop stop-color="#F7E436"/>
<stop offset="1" stop-color="#CE7C1D"/>
</linearGradient>
<linearGradient id="paint20_linear" x1="27.3597" y1="18.5006" x2="28.1773" y2="23.1713" gradientUnits="userSpaceOnUse">
<stop stop-color="#F7E436"/>
<stop offset="1" stop-color="#CE7C1D"/>
</linearGradient>
<linearGradient id="paint21_linear" x1="30.0408" y1="15.069" x2="33.0172" y2="18.7545" gradientUnits="userSpaceOnUse">
<stop stop-color="#F7E436"/>
<stop offset="1" stop-color="#CE7C1D"/>
</linearGradient>
<linearGradient id="paint22_linear" x1="31.0123" y1="7.24863" x2="35.0146" y2="8.39355" gradientUnits="userSpaceOnUse">
<stop stop-color="#F7E436"/>
<stop offset="1" stop-color="#CE7C1D"/>
</linearGradient>
<linearGradient id="paint23_linear" x1="29.4541" y1="1.82967" x2="33.4569" y2="2.97474" gradientUnits="userSpaceOnUse">
<stop stop-color="#F7E436"/>
<stop offset="1" stop-color="#CE7C1D"/>
</linearGradient>
<linearGradient id="paint24_linear" x1="31.6393" y1="11.985" x2="35.3263" y2="13.9225" gradientUnits="userSpaceOnUse">
<stop stop-color="#F7E436"/>
<stop offset="1" stop-color="#CE7C1D"/>
</linearGradient>
<linearGradient id="paint25_linear" x1="27.6412" y1="25.361" x2="23.2294" y2="27.0763" gradientUnits="userSpaceOnUse">
<stop stop-color="#F7E436"/>
<stop offset="1" stop-color="#CE7C1D"/>
</linearGradient>
<linearGradient id="paint26_linear" x1="23.7267" y1="19.935" x2="22.9789" y2="24.6173" gradientUnits="userSpaceOnUse">
<stop stop-color="#F7E436"/>
<stop offset="1" stop-color="#CE7C1D"/>
</linearGradient>
<linearGradient id="paint27_linear" x1="14.0619" y1="25.361" x2="18.4737" y2="27.0763" gradientUnits="userSpaceOnUse">
<stop stop-color="#F7E436"/>
<stop offset="1" stop-color="#CE7C1D"/>
</linearGradient>
<linearGradient id="paint28_linear" x1="17.9765" y1="19.935" x2="18.7242" y2="24.6173" gradientUnits="userSpaceOnUse">
<stop stop-color="#F7E436"/>
<stop offset="1" stop-color="#CE7C1D"/>
</linearGradient>
<clipPath id="clip0">
<rect width="12" height="12" fill="white" transform="translate(14 4)"/>
</clipPath>
<clipPath id="clip1">
<rect width="14" height="26" fill="white" transform="translate(1)"/>
</clipPath>
<clipPath id="clip2">
<rect width="14" height="26" fill="white" transform="matrix(-1 0 0 1 40 0)"/>
</clipPath>
</defs>
</svg>
